<svg width="24" height="24" viewBox="0 0 24 24" fill="none" xmlns="http://www.w3.org/2000/svg">
<path d="M9.325 13.5C8.375 13.5 7.5625 13.1625 6.8875 12.4875C6.2125 11.8125 5.875 11 5.875 10.05C5.875 9.1 6.2125 8.2875 6.8875 7.6125C7.5625 6.9375 8.375 6.6 9.325 6.6C10.275 6.6 11.0875 6.9375 11.7625 7.6125C12.4375 8.2875 12.775 9.1 12.775 10.05C12.775 11 12.4375 11.8125 11.7625 12.4875C11.0875 13.1625 10.275 13.5 9.325 13.5ZM9.325 12C9.875 12 10.3375 11.8083 10.7125 11.425C11.0875 11.0417 11.275 10.5833 11.275 10.05C11.275 9.5 11.0875 9.0375 10.7125 8.6625C10.3375 8.2875 9.875 8.1 9.325 8.1C8.79167 8.1 8.33333 8.2875 7.95 8.6625C7.56667 9.0375 7.375 9.5 7.375 10.05C7.375 10.5833 7.56667 11.0417 7.95 11.425C8.33333 11.8083 8.79167 12 9.325 12ZM16.85 14.65C16.1167 14.65 15.4917 14.3917 14.975 13.875C14.4583 13.3583 14.2 12.7333 14.2 12C14.2 11.2667 14.4583 10.6417 14.975 10.125C15.4917 9.60833 16.1167 9.35 16.85 9.35C17.5833 9.35 18.2083 9.60833 18.725 10.125C19.2417 10.6417 19.5 11.2667 19.5 12C19.5 12.7333 19.2417 13.3583 18.725 13.875C18.2083 14.3917 17.5833 14.65 16.85 14.65ZM10.55 20.4C11.35 18.9167 12.3708 17.9042 13.6125 17.3625C14.8542 16.8208 15.9333 16.55 16.85 16.55C17.2333 16.55 17.5875 16.5792 17.9125 16.6375C18.2375 16.6958 18.575 16.775 18.925 16.875C19.3583 16.2583 19.7292 15.525 20.0375 14.675C20.3458 13.825 20.5 12.9333 20.5 12C20.5 9.63333 19.675 7.625 18.025 5.975C16.375 4.325 14.3667 3.5 12 3.5C9.63333 3.5 7.625 4.325 5.975 5.975C4.325 7.625 3.5 9.63333 3.5 12C3.5 12.85 3.625 13.6708 3.875 14.4625C4.125 15.2542 4.46667 15.9667 4.9 16.6C5.53333 16.2667 6.24167 16 7.025 15.8C7.80833 15.6 8.575 15.5 9.325 15.5C9.775 15.5 10.2125 15.5292 10.6375 15.5875C11.0625 15.6458 11.4583 15.7417 11.825 15.875C11.5083 16.0417 11.2167 16.2208 10.95 16.4125C10.6833 16.6042 10.4417 16.8083 10.225 17.025C10.0583 17.0083 9.9 17 9.75 17C9.6 17 9.45833 17 9.325 17C8.75833 17 8.14583 17.0792 7.4875 17.2375C6.82917 17.3958 6.25833 17.5917 5.775 17.825C6.40833 18.4917 7.1375 19.0542 7.9625 19.5125C8.7875 19.9708 9.65 20.2667 10.55 20.4ZM12 22C10.6333 22 9.34167 21.7375 8.125 21.2125C6.90833 20.6875 5.84583 19.9708 4.9375 19.0625C4.02917 18.1542 3.3125 17.0917 2.7875 15.875C2.2625 14.6583 2 13.3667 2 12C2 10.6167 2.2625 9.32083 2.7875 8.1125C3.3125 6.90417 4.02917 5.84583 4.9375 4.9375C5.84583 4.02917 6.90833 3.3125 8.125 2.7875C9.34167 2.2625 10.6333 2 12 2C13.3833 2 14.6792 2.2625 15.8875 2.7875C17.0958 3.3125 18.1542 4.02917 19.0625 4.9375C19.9708 5.84583 20.6875 6.90417 21.2125 8.1125C21.7375 9.32083 22 10.6167 22 12C22 13.3667 21.7375 14.6583 21.2125 15.875C20.6875 17.0917 19.9708 18.1542 19.0625 19.0625C18.1542 19.9708 17.0958 20.6875 15.8875 21.2125C14.6792 21.7375 13.3833 22 12 22Z" fill="black"/>
</svg>
