<svg width="24" height="24" viewBox="0 0 24 24" fill="none" xmlns="http://www.w3.org/2000/svg">
<path d="M12.8 11.65L15.675 14.475C15.825 14.625 15.9 14.8042 15.9 15.0125C15.9 15.2208 15.825 15.4 15.675 15.55C15.525 15.7 15.35 15.775 15.15 15.775C14.95 15.775 14.775 15.7 14.625 15.55L11.525 12.5C11.4417 12.4167 11.3833 12.3292 11.35 12.2375C11.3167 12.1458 11.3 12.05 11.3 11.95V7.675C11.3 7.45833 11.3708 7.27917 11.5125 7.1375C11.6542 6.99583 11.8333 6.925 12.05 6.925C12.2667 6.925 12.4458 6.99583 12.5875 7.1375C12.7292 7.27917 12.8 7.45833 12.8 7.675V11.65ZM11.925 21C9.59168 21 7.61251 20.25 5.98751 18.75C4.36251 17.25 3.39168 15.375 3.07501 13.125C3.04168 12.8917 3.08751 12.6917 3.21251 12.525C3.33751 12.3583 3.51668 12.2667 3.75001 12.25C3.95001 12.2333 4.12501 12.2958 4.27501 12.4375C4.42501 12.5792 4.51668 12.75 4.55001 12.95C4.83334 14.8167 5.65001 16.375 7.00001 17.625C8.35001 18.875 9.99168 19.5 11.925 19.5C14.0417 19.5 15.8333 18.7583 17.3 17.275C18.7667 15.7917 19.5 13.9917 19.5 11.875C19.5 9.80833 18.7583 8.0625 17.275 6.6375C15.7917 5.2125 14.0083 4.5 11.925 4.5C10.7917 4.5 9.72918 4.75833 8.73751 5.275C7.74584 5.79167 6.88334 6.475 6.15001 7.325H8.02501C8.24168 7.325 8.42084 7.39583 8.56251 7.5375C8.70418 7.67917 8.77501 7.85833 8.77501 8.075C8.77501 8.29167 8.70418 8.47083 8.56251 8.6125C8.42084 8.75417 8.24168 8.825 8.02501 8.825H4.30001C4.08334 8.825 3.90418 8.75417 3.76251 8.6125C3.62084 8.47083 3.55001 8.29167 3.55001 8.075V4.375C3.55001 4.15833 3.62084 3.97917 3.76251 3.8375C3.90418 3.69583 4.08334 3.625 4.30001 3.625C4.51668 3.625 4.69584 3.69583 4.83751 3.8375C4.97918 3.97917 5.05001 4.15833 5.05001 4.375V6.275C5.91668 5.25833 6.94584 4.45833 8.13751 3.875C9.32918 3.29167 10.5917 3 11.925 3C13.175 3 14.35 3.23333 15.45 3.7C16.55 4.16667 17.5125 4.80417 18.3375 5.6125C19.1625 6.42083 19.8125 7.36667 20.2875 8.45C20.7625 9.53333 21 10.7 21 11.95C21 13.2 20.7625 14.375 20.2875 15.475C19.8125 16.575 19.1625 17.5333 18.3375 18.35C17.5125 19.1667 16.55 19.8125 15.45 20.2875C14.35 20.7625 13.175 21 11.925 21Z" fill="black"/>
</svg>
