<svg width="24" height="24" viewBox="0 0 24 24" fill="none" xmlns="http://www.w3.org/2000/svg">
<path d="M2.75 18C2.26667 18 1.85417 17.8292 1.5125 17.4875C1.17083 17.1458 1 16.7333 1 16.25C1 15.7667 1.17083 15.3542 1.5125 15.0125C1.85417 14.6708 2.26667 14.5 2.75 14.5C2.83333 14.5 2.91667 14.5042 3 14.5125C3.08333 14.5208 3.19167 14.5417 3.325 14.575L8.325 9.575C8.29167 9.44167 8.27083 9.33333 8.2625 9.25C8.25417 9.16667 8.25 9.08333 8.25 9C8.25 8.51667 8.42083 8.10417 8.7625 7.7625C9.10417 7.42083 9.51667 7.25 10 7.25C10.4833 7.25 10.8958 7.42083 11.2375 7.7625C11.5792 8.10417 11.75 8.51667 11.75 9C11.75 9.03333 11.725 9.225 11.675 9.575L14.425 12.325C14.5583 12.2917 14.6667 12.2708 14.75 12.2625C14.8333 12.2542 14.9167 12.25 15 12.25C15.0833 12.25 15.1667 12.2542 15.25 12.2625C15.3333 12.2708 15.4417 12.2917 15.575 12.325L19.575 8.325C19.5417 8.19167 19.5208 8.08333 19.5125 8C19.5042 7.91667 19.5 7.83333 19.5 7.75C19.5 7.26667 19.6708 6.85417 20.0125 6.5125C20.3542 6.17083 20.7667 6 21.25 6C21.7333 6 22.1458 6.17083 22.4875 6.5125C22.8292 6.85417 23 7.26667 23 7.75C23 8.23333 22.8292 8.64583 22.4875 8.9875C22.1458 9.32917 21.7333 9.5 21.25 9.5C21.1667 9.5 21.0833 9.49583 21 9.4875C20.9167 9.47917 20.8083 9.45833 20.675 9.425L16.675 13.425C16.7083 13.5583 16.7292 13.6667 16.7375 13.75C16.7458 13.8333 16.75 13.9167 16.75 14C16.75 14.4833 16.5792 14.8958 16.2375 15.2375C15.8958 15.5792 15.4833 15.75 15 15.75C14.5167 15.75 14.1042 15.5792 13.7625 15.2375C13.4208 14.8958 13.25 14.4833 13.25 14C13.25 13.9167 13.2542 13.8333 13.2625 13.75C13.2708 13.6667 13.2917 13.5583 13.325 13.425L10.575 10.675C10.4417 10.7083 10.3333 10.7292 10.25 10.7375C10.1667 10.7458 10.0833 10.75 10 10.75C9.96667 10.75 9.775 10.725 9.425 10.675L4.425 15.675C4.45833 15.8083 4.47917 15.9167 4.4875 16C4.49583 16.0833 4.5 16.1667 4.5 16.25C4.5 16.7333 4.32917 17.1458 3.9875 17.4875C3.64583 17.8292 3.23333 18 2.75 18Z" fill="black"/>
</svg>
