<svg width="70" height="70" viewBox="0 0 70 70" fill="none" xmlns="http://www.w3.org/2000/svg">
<path d="M51 45H47.84L46.72 43.92C51.52 38.32 54 30.68 52.64 22.56C50.76 11.44 41.48 2.56 30.28 1.2C13.36 -0.88 -0.88 13.36 1.2 30.28C2.56 41.48 11.44 50.76 22.56 52.64C30.68 54 38.32 51.52 43.92 46.72L45 47.84V51L62 68C63.64 69.64 66.32 69.64 67.96 68C69.6 66.36 69.6 63.68 67.96 62.04L51 45ZM27 45C17.04 45 9 36.96 9 27C9 17.04 17.04 9 27 9C36.96 9 45 17.04 45 27C45 36.96 36.96 45 27 45Z" fill="#28468C"/>
</svg>
