<svg width="45" height="45" viewBox="0 0 45 45" fill="none" xmlns="http://www.w3.org/2000/svg">
<path d="M18.1875 41.25L17.25 35.3438C16.6562 35.125 16.0312 34.8281 15.375 34.4531C14.7187 34.0781 14.1406 33.6875 13.6406 33.2812L8.10937 35.8125L3.75 28.125L8.8125 24.4219C8.75 24.1406 8.71094 23.8203 8.69531 23.4609C8.67969 23.1016 8.67188 22.7813 8.67188 22.5C8.67188 22.2187 8.67969 21.8984 8.69531 21.5391C8.71094 21.1797 8.75 20.8594 8.8125 20.5781L3.75 16.875L8.10937 9.1875L13.6406 11.7188C14.1406 11.3125 14.7187 10.9219 15.375 10.5469C16.0312 10.1719 16.6562 9.89063 17.25 9.70313L18.1875 3.75H26.8125L27.75 9.65625C28.3438 9.875 28.9766 10.1641 29.6484 10.5234C30.3203 10.8828 30.8906 11.2812 31.3594 11.7188L36.8906 9.1875L41.25 16.875L36.1875 20.4844C36.25 20.7969 36.2891 21.1328 36.3047 21.4922C36.3203 21.8516 36.3281 22.1875 36.3281 22.5C36.3281 22.8125 36.3203 23.1406 36.3047 23.4844C36.2891 23.8281 36.25 24.1563 36.1875 24.4688L41.25 28.125L36.8906 35.8125L31.3594 33.2812C30.8594 33.6875 30.2891 34.0859 29.6484 34.4766C29.0078 34.8672 28.375 35.1563 27.75 35.3438L26.8125 41.25H18.1875ZM22.5 28.5938C24.1875 28.5938 25.625 28 26.8125 26.8125C28 25.625 28.5938 24.1875 28.5938 22.5C28.5938 20.8125 28 19.375 26.8125 18.1875C25.625 17 24.1875 16.4062 22.5 16.4062C20.8125 16.4062 19.375 17 18.1875 18.1875C17 19.375 16.4062 20.8125 16.4062 22.5C16.4062 24.1875 17 25.625 18.1875 26.8125C19.375 28 20.8125 28.5938 22.5 28.5938Z" fill="#FFDF7D"/>
</svg>
