<svg width="28" height="18" viewBox="0 0 28 18" fill="none" xmlns="http://www.w3.org/2000/svg">
<path d="M13.825 8.55179C14.3306 7.9335 14.7049 7.2959 14.9479 6.63896C15.191 5.98203 15.3125 5.21884 15.3125 4.34937C15.3125 3.4799 15.191 2.7167 14.9479 2.05977C14.7049 1.40284 14.3306 0.765233 13.825 0.146945C15.3028 -0.18152 16.6007 0.0406771 17.7188 0.813537C18.8368 1.5864 19.3958 2.76501 19.3958 4.34937C19.3958 5.93373 18.8368 7.11234 17.7188 7.8852C16.6007 8.65806 15.3028 8.88026 13.825 8.55179ZM20.125 18V15.2757C20.125 14.2903 19.8722 13.3725 19.3667 12.5224C18.8611 11.6722 17.9861 10.9573 16.7417 10.3777C20.1056 10.8027 22.4049 11.421 23.6396 12.2325C24.8743 13.044 25.4917 14.0584 25.4917 15.2757V18H20.125ZM23.3333 9.62413V6.72591H20.4167V4.98698H23.3333V2.08875H25.0833V4.98698H28V6.72591H25.0833V9.62413H23.3333ZM9.1875 8.6967C7.90417 8.6967 6.85417 8.29095 6.0375 7.47945C5.22083 6.66795 4.8125 5.62459 4.8125 4.34937C4.8125 3.07415 5.22083 2.03079 6.0375 1.21929C6.85417 0.407785 7.90417 0.00203377 9.1875 0.00203377C10.4708 0.00203377 11.5208 0.407785 12.3375 1.21929C13.1542 2.03079 13.5625 3.07415 13.5625 4.34937C13.5625 5.62459 13.1542 6.66795 12.3375 7.47945C11.5208 8.29095 10.4708 8.6967 9.1875 8.6967ZM0 18V15.2757C0 14.5994 0.179861 13.986 0.539583 13.4353C0.899306 12.8846 1.38056 12.4741 1.98333 12.2036C3.38333 11.5853 4.63264 11.1409 5.73125 10.8704C6.82986 10.5999 7.98194 10.4646 9.1875 10.4646C10.3931 10.4646 11.5403 10.5999 12.6292 10.8704C13.7181 11.1409 14.9625 11.5853 16.3625 12.2036C16.9653 12.4741 17.4514 12.8846 17.8208 13.4353C18.1903 13.986 18.375 14.5994 18.375 15.2757V18H0ZM9.1875 6.95777C9.94583 6.95777 10.5729 6.71142 11.0687 6.21872C11.5646 5.72602 11.8125 5.10291 11.8125 4.34937C11.8125 3.59583 11.5646 2.97271 11.0687 2.48001C10.5729 1.98732 9.94583 1.74097 9.1875 1.74097C8.42917 1.74097 7.80208 1.98732 7.30625 2.48001C6.81042 2.97271 6.5625 3.59583 6.5625 4.34937C6.5625 5.10291 6.81042 5.72602 7.30625 6.21872C7.80208 6.71142 8.42917 6.95777 9.1875 6.95777ZM1.75 16.2611H16.625V15.2757C16.625 14.9665 16.5472 14.6767 16.3917 14.4062C16.2361 14.1357 15.9931 13.9232 15.6625 13.7686C14.3208 13.1503 13.1833 12.7349 12.25 12.5224C11.3167 12.3098 10.2958 12.2036 9.1875 12.2036C8.07917 12.2036 7.06319 12.3098 6.13958 12.5224C5.21597 12.7349 4.06389 13.1503 2.68333 13.7686C2.39167 13.9038 2.16319 14.1116 1.99792 14.3917C1.83264 14.6719 1.75 14.9665 1.75 15.2757V16.2611Z" fill="black"/>
</svg>
