<svg width="24" height="24" viewBox="0 0 24 24" fill="none" xmlns="http://www.w3.org/2000/svg">
<path d="M14.15 4H19.9V5.5H16.625L17 5.85C18 6.78333 18.75 7.78333 19.25 8.85C19.75 9.91667 20 10.9417 20 11.925C20 13.6917 19.4833 15.2833 18.45 16.7C17.4167 18.1167 16.05 19.0917 14.35 19.625V18.05C15.6167 17.5667 16.625 16.7625 17.375 15.6375C18.125 14.5125 18.5 13.275 18.5 11.925C18.5 11.125 18.3042 10.3125 17.9125 9.4875C17.5208 8.6625 17.0083 7.93333 16.375 7.3L15.65 6.65V9.75H14.15V4ZM9.925 20H4.175V18.5H7.425L7.05 18.2C5.98333 17.35 5.20833 16.425 4.725 15.425C4.24167 14.425 4 13.3083 4 12.075C4 10.3083 4.52083 8.72083 5.5625 7.3125C6.60417 5.90417 7.975 4.93333 9.675 4.4V5.95C8.425 6.43333 7.41667 7.2375 6.65 8.3625C5.88333 9.4875 5.5 10.725 5.5 12.075C5.5 13.125 5.69583 14.0375 6.0875 14.8125C6.47917 15.5875 7.00833 16.2583 7.675 16.825L8.425 17.35V14.25H9.925V20Z" fill="black"/>
</svg>
