<svg width="24" height="24" viewBox="0 0 24 24" fill="none" xmlns="http://www.w3.org/2000/svg">
<path d="M10 11.875C8.9 11.875 8 11.525 7.3 10.825C6.6 10.125 6.25 9.225 6.25 8.125C6.25 7.025 6.6 6.125 7.3 5.425C8 4.725 8.9 4.375 10 4.375C11.1 4.375 12 4.725 12.7 5.425C13.4 6.125 13.75 7.025 13.75 8.125C13.75 9.225 13.4 10.125 12.7 10.825C12 11.525 11.1 11.875 10 11.875ZM2 19.9V17.525C2 16.9417 2.15 16.4167 2.45 15.95C2.75 15.4833 3.16667 15.1333 3.7 14.9C4.7 14.4667 5.725 14.1083 6.775 13.825C7.825 13.5417 8.9 13.4 10 13.4C10.1 13.4 10.1958 13.4 10.2875 13.4C10.3792 13.4 10.475 13.4 10.575 13.4C10.2417 14.4667 10.1167 15.5542 10.2 16.6625C10.2833 17.7708 10.5333 18.85 10.95 19.9H2ZM16.675 21L16.425 19.35C16.1417 19.2667 15.8542 19.1458 15.5625 18.9875C15.2708 18.8292 15.025 18.65 14.825 18.45L13.45 18.75L12.825 17.7L14 16.6C13.9667 16.45 13.95 16.2417 13.95 15.975C13.95 15.7083 13.9667 15.5 14 15.35L12.825 14.25L13.45 13.2L14.825 13.5C15.025 13.3 15.2708 13.1208 15.5625 12.9625C15.8542 12.8042 16.1417 12.6833 16.425 12.6L16.675 10.95H18.025L18.275 12.6C18.5583 12.6833 18.8458 12.8042 19.1375 12.9625C19.4292 13.1208 19.675 13.3 19.875 13.5L21.25 13.2L21.875 14.25L20.7 15.35C20.7333 15.5 20.75 15.7083 20.75 15.975C20.75 16.2417 20.7333 16.45 20.7 16.6L21.875 17.7L21.25 18.75L19.875 18.45C19.675 18.65 19.4292 18.8292 19.1375 18.9875C18.8458 19.1458 18.5583 19.2667 18.275 19.35L18.025 21H16.675ZM17.35 17.975C17.95 17.975 18.4333 17.7917 18.8 17.425C19.1667 17.0583 19.35 16.575 19.35 15.975C19.35 15.375 19.1667 14.8917 18.8 14.525C18.4333 14.1583 17.95 13.975 17.35 13.975C16.75 13.975 16.2667 14.1583 15.9 14.525C15.5333 14.8917 15.35 15.375 15.35 15.975C15.35 16.575 15.5333 17.0583 15.9 17.425C16.2667 17.7917 16.75 17.975 17.35 17.975Z" fill="black"/>
</svg>
